# xmcd
#
# Track frame offsets: 
#        182
#        34685
#        54007
#        95922
#        112107
#        128025
#        151127
#        178867
#        197840
#        215765
#        253782
#        271237
#        314810
#
# Disc length: 4438 seconds
#
# Revision: 4
# Processed by: cddbd v1.5.2PL0 Copyright (c) Steve Scherf et al.
# Submitted via: ExactAudioCopy v0.99pb5
#
DISCID=c211540d
DTITLE=Clifford Brown and Max Roach - At Basin Street
DYEAR=1956
DGENRE=Jazz
TTITLE0=What Is This Thing Called Love?
TTITLE1=Love Is a Many Splendored Thing
TTITLE2=I'll Remember April
TTITLE3=Step Lightly (Junior's Arrival)
TTITLE4=Powell's Prances
TTITLE5=Time
TTITLE6=The Scene Is Clean
TTITLE7=Gertrude's Bounce [bonus]
TTITLE8=Flossie Lou [bonus]
TTITLE9=What Is This Thing Called Love? [alt. take]
TTITLE10=Love Is a Many Splendored Thing [alt. take]
TTITLE11=I'll Remember April [alt. take]
TTITLE12=Flossie Lou [alt. take]
EXTD=YEAR: 1956
EXTT0=Cole Porter
EXTT1=Paul Francis Webster - Sammy Fain
EXTT2=Don Raye - Gene DePaul - Patricia Johnston
EXTT3=Benny Golson
EXTT4=Richie Powell
EXTT5=Richie Powell
EXTT6=Tadd Dameron
EXTT7=Richie Powell
EXTT8=Tadd Dameron
EXTT9=**Previously unreleased alternate take\nCole Porter
EXTT10=**Previously unreleased alternate take\nPaul Francis Webster - 
EXTT10=Sammy Fain
EXTT11=*Previously released alternate take\nDon Raye - Gene DePaul - P
EXTT11=atricia Johnston
EXTT12=**Previously unreleased alternate take\nTadd Dameron
PLAYORDER=
